<?xml version="1.0" encoding="UTF-8"?>
<!DOCTYPE svg PUBLIC "-//W3C//DTD SVG 1.1//EN" "http://www.w3.org/Graphics/SVG/1.1/DTD/svg11.dtd">
<svg xmlns="http://www.w3.org/2000/svg" xmlns:xlink="http://www.w3.org/1999/xlink" version="1.1" width="140px" height="140px" viewBox="-0.5 -0.5 140 140"><defs/><g><rect x="0" y="0" width="140" height="140" fill="none" stroke="none" pointer-events="all"/><path d="M 70 69.1 L 70 9.1 L 130 69.1 Z" fill="#713abe" stroke="none" transform="rotate(-180,100,39.1)" pointer-events="all"/><path d="M 24.4 -6.1 L 54.8 24.3 L 24.4 54.7 Z" fill="#e5cff7" stroke="none" transform="rotate(90,39.6,24.3)" pointer-events="all"/><path d="M 79.4 90.2 L 79.4 48.2 L 121.4 90.2 Z" fill="#e5cff7" stroke="none" transform="rotate(135,100.4,69.2)" pointer-events="all"/><path d="M 70.7 129.2 L 70.7 69.2 L 130.7 129.2 Z" fill="#713abe" stroke="none" pointer-events="all"/><path d="M 10.7 129.3 L 10.7 99.3 L 70.7 129.3 Z" fill="#e5cff7" stroke="none" transform="translate(0,114.3)scale(1,-1)translate(0,-114.3)rotate(180,40.7,114.3)" pointer-events="all"/><path d="M 48.5 61 L 48.5 18 L 91.5 61 Z" fill="#5b0888" stroke="none" transform="rotate(135,70,39.5)" pointer-events="all"/><path d="M 79.4 90.2 L 79.4 48.2 L 121.4 90.2 Z" fill="#5b0888" stroke="none" transform="rotate(315,100.4,69.2)" pointer-events="all"/></g></svg>